<?xml version="1.0" encoding="UTF-8" standalone="no"?>
<!-- Generator: Adobe Illustrator 19.0.0, SVG Export Plug-In . SVG Version: 6.00 Build 0)  -->

<svg
   xmlns:dc="http://purl.org/dc/elements/1.1/"
   xmlns:cc="http://creativecommons.org/ns#"
   xmlns:rdf="http://www.w3.org/1999/02/22-rdf-syntax-ns#"
   xmlns:svg="http://www.w3.org/2000/svg"
   xmlns="http://www.w3.org/2000/svg"
   xmlns:sodipodi="http://sodipodi.sourceforge.net/DTD/sodipodi-0.dtd"
   xmlns:inkscape="http://www.inkscape.org/namespaces/inkscape"
   version="1.1"
   id="Layer_1"
   x="0px"
   y="0px"
   viewBox="0 0 366.999 366.999"
   style="enable-background:new 0 0 366.999 366.999;"
   xml:space="preserve"
   sodipodi:docname="export-svgrepo-com.svg"
   inkscape:version="0.92.4 (5da689c313, 2019-01-14)"><metadata
   id="metadata38"><rdf:RDF><cc:Work
       rdf:about=""><dc:format>image/svg+xml</dc:format><dc:type
         rdf:resource="http://purl.org/dc/dcmitype/StillImage" /></cc:Work></rdf:RDF></metadata><defs
   id="defs36" /><sodipodi:namedview
   pagecolor="#ffffff"
   bordercolor="#666666"
   borderopacity="1"
   objecttolerance="10"
   gridtolerance="10"
   guidetolerance="10"
   inkscape:pageopacity="0"
   inkscape:pageshadow="2"
   inkscape:window-width="640"
   inkscape:window-height="480"
   id="namedview34"
   showgrid="false"
   inkscape:zoom="0.64305354"
   inkscape:cx="183.4995"
   inkscape:cy="183.4995"
   inkscape:window-x="355"
   inkscape:window-y="181"
   inkscape:window-maximized="0"
   inkscape:current-layer="Layer_1" />
<path
   id="XMLID_223_"
   d="m 328.78227,223.02841 c 0.10517,-0.1275 0.19593,-0.26293 0.29462,-0.39403 0.11309,-0.15055 0.22979,-0.29822 0.33424,-0.45525 0.10445,-0.15559 0.19449,-0.31767 0.28957,-0.47687 0.085,-0.14262 0.17505,-0.28237 0.25356,-0.42932 0.0872,-0.16207 0.16064,-0.32991 0.23916,-0.49559 0.0727,-0.15343 0.14911,-0.3047 0.21466,-0.46318 0.0663,-0.16063 0.12029,-0.32487 0.17864,-0.48839 0.0612,-0.16928 0.12606,-0.3364 0.17864,-0.51 0.049,-0.1628 0.085,-0.32703 0.12678,-0.49199 0.0447,-0.1772 0.0944,-0.35297 0.13039,-0.53377 0.0374,-0.18801 0.0591,-0.37746 0.0864,-0.56763 0.0231,-0.15919 0.0533,-0.31623 0.0691,-0.4783 0.0346,-0.34937 0.0526,-0.70089 0.0533,-1.0517 0,-0.005 7.2e-4,-0.009 7.2e-4,-0.0144 0,-0.006 -7.2e-4,-0.0122 -7.2e-4,-0.018 0,-0.35009 -0.018,-0.69945 -0.0526,-1.0481 -0.0159,-0.16207 -0.0461,-0.31839 -0.0691,-0.4783 -0.0274,-0.18945 -0.049,-0.3789 -0.0864,-0.56691 -0.036,-0.18224 -0.0864,-0.35945 -0.13111,-0.53809 -0.0411,-0.1628 -0.0771,-0.32632 -0.12533,-0.48767 -0.0526,-0.17432 -0.11814,-0.34288 -0.18009,-0.5136 -0.0584,-0.16208 -0.11165,-0.3256 -0.1772,-0.48479 -0.0663,-0.1592 -0.14335,-0.31119 -0.2161,-0.46606 -0.0778,-0.16496 -0.15056,-0.33064 -0.237,-0.49199 -0.0792,-0.14839 -0.17,-0.28886 -0.25572,-0.43221 -0.0944,-0.15919 -0.1844,-0.31911 -0.28813,-0.47398 -0.10589,-0.15775 -0.22331,-0.30542 -0.3364,-0.45741 -0.098,-0.13111 -0.18873,-0.26509 -0.29318,-0.39187 -0.21538,-0.26292 -0.44373,-0.51432 -0.68288,-0.75563 -0.0115,-0.0115 -0.0209,-0.0245 -0.0324,-0.036 l -27.012,-27.01343 c -4.21902,-4.21903 -11.0608,-4.21975 -15.28055,-7.2e-4 -4.21974,4.21974 -4.21974,11.0608 0,15.28055 l 8.56771,8.56843 -32.98288,0.001 v -56.62225 c 0.002,-0.0958 0.0144,-0.18944 0.0144,-0.28525 0,-2.59754 -0.92708,-4.9725 -2.4542,-6.83602 -0.0151,-0.0187 -0.0303,-0.0382 -0.0461,-0.0569 -0.19881,-0.23916 -0.40843,-0.46822 -0.62741,-0.69009 -0.031,-0.0317 -0.0627,-0.0641 -0.0944,-0.0958 -0.0951,-0.0944 -0.18368,-0.19594 -0.28309,-0.2867 L 178.95969,61.590356 c -0.004,-0.0029 -0.007,-0.0065 -0.0108,-0.01008 -0.22114,-0.220424 -0.45165,-0.427161 -0.68792,-0.625254 -0.0749,-0.06267 -0.15271,-0.121737 -0.22907,-0.182246 -0.17288,-0.136864 -0.34792,-0.269407 -0.52801,-0.394746 -0.09,-0.06339 -0.1808,-0.125339 -0.27301,-0.185847 -0.18945,-0.123899 -0.38178,-0.239873 -0.57771,-0.350805 -0.0807,-0.04538 -0.15847,-0.09509 -0.24059,-0.139026 -0.26149,-0.139746 -0.52801,-0.267966 -0.79886,-0.384661 -0.11093,-0.04826 -0.22402,-0.08932 -0.3364,-0.133983 -0.18008,-0.07131 -0.36089,-0.138305 -0.54457,-0.199534 -0.12606,-0.04178 -0.25212,-0.08212 -0.37962,-0.119576 -0.20818,-0.06051 -0.41852,-0.113814 -0.6303,-0.162076 -0.0944,-0.02089 -0.18657,-0.04754 -0.28237,-0.06699 -0.30254,-0.06051 -0.60797,-0.105169 -0.91483,-0.139025 -0.0936,-0.01081 -0.18873,-0.01657 -0.2831,-0.02521 -0.25427,-0.02233 -0.50855,-0.03458 -0.76355,-0.0389 -0.0547,-0.0014 -0.10661,-0.0086 -0.16136,-0.0086 H 77.673551 c -5.967285,0 -10.805081,4.837797 -10.805081,10.805085 V 285.33053 c 0,5.96729 4.837796,10.80508 10.805081,10.80508 H 250.55491 c 5.96729,0 10.80508,-4.83779 10.80508,-10.80508 v -58.34674 l 32.98144,7.2e-4 -8.56699,8.56699 c -4.21974,4.21975 -4.21974,11.06081 0,15.28055 2.10988,2.10988 4.87526,3.16517 7.63992,3.16517 2.76466,0 5.53076,-1.05457 7.63991,-3.16517 l 27.01199,-27.01199 c 0.006,-0.006 0.0101,-0.0115 0.0151,-0.0166 0.24708,-0.24779 0.48047,-0.5064 0.70089,-0.77508 z M 182.12269,95.314466 224.46926,137.66104 H 182.12269 Z M 239.74981,274.52544 H 88.478631 V 80.033915 h 72.033889 v 68.432205 c 0,5.96729 4.8378,10.80508 10.80509,10.80508 h 68.4322 v 46.10242 l -46.82275,-7.2e-4 c -5.96729,0 -10.80509,4.8378 -10.80509,10.80508 0,5.96729 4.8378,10.80509 10.80509,10.80509 l 46.82275,7.2e-4 z"
   inkscape:connector-curvature="0"
   style="stroke-width:0.720339" />
<g
   id="g3">
</g>
<g
   id="g5">
</g>
<g
   id="g7">
</g>
<g
   id="g9">
</g>
<g
   id="g11">
</g>
<g
   id="g13">
</g>
<g
   id="g15">
</g>
<g
   id="g17">
</g>
<g
   id="g19">
</g>
<g
   id="g21">
</g>
<g
   id="g23">
</g>
<g
   id="g25">
</g>
<g
   id="g27">
</g>
<g
   id="g29">
</g>
<g
   id="g31">
</g>
</svg>