<?xml version="1.0" encoding="UTF-8" standalone="no"?>
<svg
   xmlns:dc="http://purl.org/dc/elements/1.1/"
   xmlns:cc="http://creativecommons.org/ns#"
   xmlns:rdf="http://www.w3.org/1999/02/22-rdf-syntax-ns#"
   xmlns:svg="http://www.w3.org/2000/svg"
   xmlns="http://www.w3.org/2000/svg"
   viewBox="0 0 64.019676 64.069725"
   height="64.069725"
   width="64.019676"
   id="svg6750"
   version="1.1">
  <metadata
     id="metadata6756">
    <rdf:RDF>
      <cc:Work
         rdf:about="">
        <dc:format>image/svg+xml</dc:format>
        <dc:type
           rdf:resource="http://purl.org/dc/dcmitype/StillImage" />
        <dc:title></dc:title>
      </cc:Work>
    </rdf:RDF>
  </metadata>
  <defs
     id="defs6754" />
  <g
     transform="translate(0.01486781,0.01486781)"
     id="g7303">
    <path
       id="path7317"
       d="M 23,63.122752 C 14.399388,60.297966 7.0833217,54.07832 2.8587882,46 0.86808875,42.193306 0.50584131,40.036355 0.50756873,32 0.50936614,23.637982 0.82810159,21.901062 3.1684073,17.5 6.3547068,11.508004 11.86796,6.06552 18,2.8587882 c 6.553244,-3.42699937 21.446756,-3.42699937 28,0 C 52.13204,6.06552 57.645293,11.508004 60.831593,17.5 c 2.340305,4.401062 2.659041,6.137982 2.660838,14.5 0.0023,10.763685 -1.711474,15.348945 -8.348456,22.336398 C 49.250902,60.540659 42.855781,63.290362 33.5,63.642631 29.1,63.808303 24.375,63.574357 23,63.122752 Z M 30,53.5 c 0,-6.043691 -0.01543,-6.054155 -7.17903,-4.869669 l -3.679031,0.60832 2.109564,4.342118 c 2.02746,4.173123 3.185257,5.050463 6.998497,5.30323 C 29.718606,58.981347 30,58.11562 30,53.5 Z m 8.586644,4.912433 c 1.171842,-0.314637 3.003964,-2.448379 4.17903,-4.86702 l 2.092387,-4.306762 -3.679031,-0.60832 C 34.015427,47.445845 34,47.456309 34,53.5 c 0,5.688665 0.339872,6.052679 4.586644,4.912433 z m -21.418377,-5.4866 c -0.422006,-1.140791 -1.082505,-2.040791 -1.467775,-2 -0.385271,0.04079 -1.262992,0.08417 -1.950492,0.0964 C 13.0625,51.034466 13.625,51.924459 15,53 c 3.113885,2.435716 3.096948,2.436296 2.168267,-0.07417 z m 32.689147,-2.013956 c -1.616759,-0.999212 -2.487106,-0.435939 -3.131005,2.026333 -0.489448,1.871653 -0.393232,1.88959 1.938962,0.361478 1.786618,-1.170637 2.11079,-1.819994 1.192043,-2.387811 z m -36.12214,-3.727106 c 0.957729,-0.608316 0.989892,-2.177656 0.143151,-6.984687 L 12.786301,34 H 8.8136954 c -3.9591436,0 -3.9702287,0.01101 -3.2711134,3.25 0.9945041,4.607517 4.2734613,10.752797 5.727742,10.734687 0.676322,-0.0084 1.785549,-0.368384 2.46495,-0.799916 z M 55.857639,44.25 c 1.044058,-2.0625 2.213958,-5.2125 2.599779,-7 C 59.156533,34.011014 59.145448,34 55.186305,34 h -3.972606 l -1.092124,6.200084 c -0.846741,4.807031 -0.814578,6.376371 0.143151,6.984687 2.36077,1.499479 3.705424,0.793898 5.592913,-2.934771 z M 27.125,45 C 29.943182,45 30,44.891304 30,39.5 V 34 h -6.5 c -6.492754,0 -6.5,0.0032 -6.5,2.875 0,1.58125 0.289904,4.324519 0.644231,6.096154 0.590157,2.950786 0.894422,3.171115 3.625,2.625 C 22.908654,45.268269 25.54375,45 27.125,45 Z m 19.25,-2.125 C 46.71875,41.15625 47,38.45625 47,36.875 47,34.003205 46.992754,34 40.5,34 H 34 v 5.442502 5.442502 l 4.25,0.382791 c 2.3375,0.210535 4.98125,0.461409 5.875,0.557498 1.080623,0.11618 1.834376,-0.872171 2.25,-2.950293 z M 13.878425,23.799916 C 14.992496,17.475232 14.516919,16.055742 11.270324,16.015313 9.8160433,15.997203 6.5370861,22.142483 5.542582,26.75 4.8434667,29.988986 4.8545518,30 8.8136954,30 H 12.786301 Z M 30,24.639903 v -5.360097 l -5.716568,-0.590002 c -3.144112,-0.324501 -5.871736,-0.434833 -6.061387,-0.245183 -0.18965,0.189651 -0.605151,2.867195 -0.923335,5.950099 L 16.720194,30 H 23.360097 30 Z M 46.70129,24.39472 c -0.318184,-3.082904 -0.733685,-5.760448 -0.923335,-5.950099 -0.189651,-0.18965 -2.917275,-0.07932 -6.061387,0.245183 L 34,19.279806 V 24.639903 30 h 6.639903 6.639903 z M 58.457418,26.75 c -0.994504,-4.607517 -4.273461,-10.752797 -5.727742,-10.734687 -3.246595,0.04043 -3.722172,1.459919 -2.608101,7.784603 L 51.213699,30 h 3.972606 c 3.959143,0 3.970228,-0.01101 3.271113,-3.25 z M 30,10.5 C 30,6.7593842 29.60014,5.004368 28.75,5.0136547 25.172269,5.0527369 23.138631,6.5349535 21.206596,10.511663 L 19.08648,14.8755 21.79324,15.287918 C 29.986392,16.536275 30,16.528336 30,10.5 Z m 11.17903,4.869669 3.679031,-0.60832 -2.092387,-4.306762 C 40.861144,6.5344896 38.814163,5.0525887 35.25,5.0136547 34.39986,5.004368 34,6.7593842 34,10.5 c 0,6.043691 0.01543,6.054155 7.17903,4.869669 z M 17.273591,11.06179 c 0.489448,-1.8716527 0.393232,-1.88959 -1.938962,-0.361478 -1.786618,1.170637 -2.11079,1.819994 -1.192043,2.387811 1.616759,0.999212 2.487106,0.435939 3.131005,-2.026333 z M 51,12.508021 C 51,12.35512 49.819594,11.456588 48.376876,10.511283 46.934158,9.5659782 45.964772,9.1767237 46.222684,9.6462733 c 0.257913,0.4695497 0.746284,1.6336407 1.08527,2.5868677 0.374515,1.053136 1.219722,1.501601 2.154192,1.143011 C 50.307966,13.051581 51,12.660922 51,12.508021 Z"
       style="fill:#d2d2d2" />
    <path
       id="path7315"
       d="M 20.034512,61.797623 C 12.555775,58.926585 4.9895534,51.260751 2.1537902,43.681495 -7.6508847,17.476153 17.476153,-7.6508847 43.681495,2.1537902 51.44894,5.0599639 58.940036,12.55106 61.84621,20.318505 71.677203,46.594188 46.219154,71.849738 20.034512,61.797623 Z M 30,53.5 V 48 l -3.25,0.09968 c -1.7875,0.05482 -4.243632,0.392324 -5.45807,0.75 L 19.083859,49.5 20.952498,53.659453 C 22.717262,57.587685 24.148137,58.612101 28.25,58.883999 29.718606,58.981347 30,58.11562 30,53.5 Z m 8.864517,4.839767 c 1.50088,-0.401749 3.037873,-2.131693 4.208071,-4.736345 L 44.916141,49.5 42.70807,48.84968 C 41.493632,48.492004 39.0375,48.154504 37.25,48.09968 L 34,48 v 5.5 c 0,5.755906 0.305701,6.060051 4.864517,4.839767 z m -21.81868,-6.254121 c -1.189938,-2.223418 -2.563106,-2.675739 -3.50355,-1.154068 -0.568536,0.919911 3.470825,4.388644 4.228401,3.631067 0.215244,-0.215244 -0.110939,-1.329893 -0.724851,-2.476999 z m 33.414781,-0.02192 c 0.314603,-0.509039 0.0464,-1.250367 -0.59601,-1.647398 C 48.748944,49.726805 46,52.436898 46,54.226313 c 0,0.971007 3.603759,-0.776164 4.460618,-2.162592 z M 14.223384,43 C 13.70246,34.525595 13.396305,34 8.980948,34 4.4481746,34 4.2398724,34.594116 6.5133857,41.037939 8.4727408,46.591343 9.8458965,48.164966 12.412495,47.798257 14.225227,47.539259 14.46359,46.907676 14.223384,43 Z m 42.010315,0.956507 c 0.953534,-1.94892 2.022284,-4.98642 2.375,-6.75 C 59.247133,34.014333 59.231646,34 55.144052,34 c -4.465833,0 -4.400026,-0.101592 -5.56829,8.596122 -0.302602,2.252867 -0.236958,4.409349 0.145876,4.792182 1.622996,1.622997 4.878269,-0.0925 6.512061,-3.431797 z M 27.75,45.011006 C 29.809272,45.000933 30,44.533776 30,39.5 V 34 h -6.861328 c -7.654836,0 -7.076898,-0.861387 -5.615653,8.369841 0.605742,3.826697 0.653623,3.863053 4.294776,3.261005 C 23.843008,45.295987 26.5125,45.017059 27.75,45.011006 Z M 46.499463,42.25 C 47.93078,33.154022 48.50893,34 40.861328,34 H 34 v 5.439635 5.439634 l 3.75,0.392263 c 8.470167,0.886007 8.1153,1.008556 8.749463,-3.021532 z M 13.454332,27.75 C 13.725172,26.5125 14.071245,23.475 14.223384,21 14.481995,16.792902 14.337276,16.5 12,16.5 9.2891253,16.5 6.6178672,20.660664 5.3913015,26.793493 4.7528667,29.985667 4.7683538,30 8.855948,30 c 3.445447,0 4.185163,-0.361945 4.598384,-2.25 z M 30,24.637681 v -5.362318 l -5.641321,-0.663027 c -3.102727,-0.364664 -5.835861,-0.468487 -6.073631,-0.230717 -0.23777,0.23777 -0.773856,2.949175 -1.191301,6.025345 L 16.334755,30 H 23.167378 30 Z m 16.906253,-0.230717 c -0.417445,-3.07617 -0.953531,-5.787575 -1.191301,-6.025345 -0.23777,-0.23777 -2.970904,-0.133947 -6.073631,0.230717 L 34,19.275363 V 24.637681 30 h 6.832622 6.832623 z m 11.702446,2.386529 C 57.382133,20.660664 54.710875,16.5 52,16.5 c -2.337276,0 -2.481995,0.292902 -2.223384,4.5 0.523634,8.518498 0.810793,9 5.367436,9 4.087594,0 4.103081,-0.01433 3.464647,-3.206507 z M 30,10.5 C 30,4.7440943 29.694299,4.439949 25.135483,5.6602329 23.634603,6.061982 22.09761,7.7919258 20.927412,10.396578 L 19.083859,14.5 21.29193,15.15032 c 1.214438,0.357676 3.67057,0.695176 5.45807,0.75 L 30,16 Z M 42.70807,15.15032 44.916141,14.5 43.072588,10.396578 C 41.90239,7.7919258 40.365397,6.061982 38.864517,5.6602329 34.305701,4.439949 34,4.7440943 34,10.5 V 16 l 3.25,-0.09968 c 1.7875,-0.05482 4.243632,-0.392324 5.45807,-0.75 z M 17.045837,11.914354 c 0.613912,-1.147106 0.940095,-2.2617554 0.724851,-2.4769993 -0.757576,-0.7575765 -4.796937,2.7111563 -4.228401,3.6310673 0.940444,1.521671 2.313612,1.06935 3.50355,-1.154068 z m 33.411876,1.154068 C 51.026249,12.148511 46.986888,8.6797782 46.229312,9.4373547 45.605408,10.061259 47.976653,14 48.976167,14 c 0.498189,0 1.164885,-0.41921 1.481546,-0.931578 z"
       style="fill:#b7b7b7" />
    <path
       id="path7313"
       d="M 22.173316,62.575845 C 4.3333158,56.761539 -4.845879,36.004006 2.7897329,18.742439 5.4008498,12.839576 12.75672,5.4613269 18.803644,2.6798086 c 6.640684,-3.05464179 19.752028,-3.05464179 26.392712,0 6.012387,2.7656317 13.358204,10.1114484 16.123835,16.1238354 3.054642,6.640684 3.054642,19.752028 0,26.392712 -2.790293,6.066 -10.16283,13.402854 -16.123835,16.045795 -5.927264,2.627981 -17.071062,3.273526 -23.02304,1.333694 z M 31,53.5 V 48 l -3.75,0.01365 c -2.0625,0.0075 -4.748175,0.281248 -5.968167,0.608306 -2.140916,0.573943 -2.1659,0.721479 -0.717413,4.236346 C 22.397335,57.306016 24.500912,59 28.19113,59 30.929154,59 31,58.861278 31,53.5 Z m 9.276284,4.25 c 0.912198,-0.6875 2.333881,-2.888762 3.159296,-4.891693 1.448487,-3.514867 1.423503,-3.662403 -0.717413,-4.236346 C 41.498175,48.294903 38.8125,48.021165 36.75,48.013655 L 33,48 v 5.5 c 0,5.361278 0.07085,5.5 2.80887,5.5 1.544879,0 3.555215,-0.5625 4.467414,-1.25 z m -22.833124,-5 c -0.916195,-2.980616 -1.076365,-3.10473 -3.036151,-2.352689 -1.555095,0.596745 -1.546825,0.790713 0.111859,2.623538 2.386746,2.637324 3.778594,2.508411 2.924292,-0.270849 z m 32.037972,0.270849 c 1.658684,-1.832825 1.666954,-2.026793 0.111859,-2.623538 C 47.633205,49.64527 47.473035,49.769384 46.55684,52.75 c -0.854302,2.77926 0.537546,2.908173 2.924292,0.270849 z M 14.142754,40.872197 C 13.946269,37.367489 13.582211,34.1625 13.333737,33.75 13.085263,33.3375 11.05101,33 8.8131748,33 H 4.7443836 l 0.6542997,4.091766 c 0.3598648,2.250471 1.543849,5.835426 2.6310758,7.966567 1.7142732,3.360253 2.2751279,3.762674 4.2235089,3.030431 2.062616,-0.775175 2.217456,-1.366563 1.889486,-7.216567 z m 41.810431,4.219569 c 1.096607,-2.149529 2.288267,-5.749529 2.648132,-8 L 59.255616,33 h -4.159193 c -4.649327,0 -4.67584,0.03972 -5.52492,8.277785 -0.602176,5.842502 -0.281234,6.433636 4.158173,7.658829 0.126322,0.03486 1.126901,-1.695319 2.223509,-3.844848 z M 29.189475,45 c 1.693727,0 1.876328,-0.651971 1.610429,-5.75 L 30.5,33.5 h -7 -7 l 0.265776,4 c 0.564689,8.498739 0.806494,8.830475 5.925194,8.128879 C 25.214465,45.282996 28.138792,45 29.189475,45 Z m 17.275697,-1.25 c 0.276802,-1.2375 0.622876,-4.05 0.769052,-6.25 L 47.5,33.5 h -7 -7 l -0.298017,5.686772 -0.298018,5.686772 3.798018,0.395125 c 8.74817,0.910111 9.236929,0.834085 9.763189,-1.518669 z M 13.333737,30.25 c 0.248474,-0.4125 0.612532,-3.617489 0.809017,-7.122197 0.32797,-5.850004 0.17313,-6.441392 -1.889486,-7.216567 -1.948381,-0.732243 -2.5092357,-0.329822 -4.2235089,3.030431 -1.0872268,2.131141 -2.271211,5.716096 -2.6310758,7.966567 L 4.7443836,31 H 8.8131748 C 11.05101,31 13.085263,30.6625 13.333737,30.25 Z M 30.795895,24.884359 31.09179,19.268717 24.940777,18.57281 c -3.383056,-0.38275 -6.394451,-0.45247 -6.691987,-0.154934 -0.861576,0.861577 -2.233743,10.797454 -1.62678,11.77954 0.302541,0.489523 3.548856,0.757863 7.214033,0.596313 L 30.5,30.5 Z m 16.609121,5.269328 C 47.992486,29.203141 46.590969,19.257636 45.75121,18.417876 45.453674,18.12034 42.462932,18.187724 39.105117,18.567617 L 33,19.258333 V 24.4625 c 0,2.862291 0.3,5.504167 0.666667,5.870833 0.974802,0.974803 13.123037,0.815949 13.738349,-0.179646 z m 11.196301,-3.245453 c -0.359865,-2.250471 -1.543849,-5.835426 -2.631076,-7.966567 -1.714273,-3.360253 -2.275128,-3.762674 -4.223509,-3.030431 -2.062616,0.775175 -2.217456,1.366563 -1.889486,7.216567 0.196485,3.504708 0.560543,6.709697 0.809017,7.122197 0.248474,0.4125 2.282727,0.75 4.520562,0.75 h 4.068791 z M 31,10.5 C 31,5.1387217 30.929154,5 28.19113,5 24.493111,5 22.39701,6.6948885 20.548521,11.179745 18.801437,15.41857 19.141223,15.676321 26.75,15.883999 L 31,16 Z m 11.718167,4.878039 c 2.140916,-0.573943 2.1659,-0.721479 0.717413,-4.236346 C 41.602665,6.6939837 39.499088,5 35.80887,5 33.070846,5 33,5.1387217 33,10.5 V 16 l 3.75,-0.01365 c 2.0625,-0.0075 4.748175,-0.281248 5.968167,-0.608306 z M 17.343705,11.79367 c 0.317333,-1.213481 0.372576,-2.4107224 0.122763,-2.6605357 -0.753145,-0.7531449 -4.461238,3.0663117 -3.88387,4.0005127 1.012186,1.63775 3.184834,0.863697 3.761107,-1.339977 z m 33.073697,1.339977 c 0.577368,-0.934201 -3.130725,-4.7536576 -3.88387,-4.0005127 -0.249813,0.2498133 -0.19457,1.4470547 0.122763,2.6605357 0.576273,2.203674 2.748921,2.977727 3.761107,1.339977 z"
       style="fill:#909090" />
    <path
       id="path7311"
       d="M 24.332615,63.103561 C 9.5632068,59.293128 -0.9765349,44.651946 0.24246813,29.638964 2.8184031,-2.0857049 44.556597,-10.925644 59.917939,17 c 3.324882,6.044359 3.572908,7.095838 3.538243,15 -0.0316,7.204436 -0.441808,9.278473 -2.691337,13.607445 -3.896712,7.498791 -6.950519,10.679873 -13.712435,14.283937 -6.495757,3.462202 -16.35034,4.855467 -22.719795,3.212179 z M 31,53.5 V 48 l -4.75,0.01531 c -7.057832,0.02275 -7.855175,0.878122 -5.366264,5.75679 2.232261,4.375594 3.166148,5.028372 7.366264,5.14895 C 30.926236,58.997882 31,58.852472 31,53.5 Z m 8.460809,4.876665 c 0.893412,-0.342834 2.545504,-2.428877 3.671316,-4.635651 2.472164,-4.845842 1.66646,-5.702978 -5.382125,-5.725701 L 33,48 v 5.5 c 0,5.150395 0.153712,5.5 2.418213,5.5 1.330016,0 3.149185,-0.280501 4.042596,-0.623335 z M 17.693898,53 c -0.674249,-1.78629 -1.852816,-3 -2.913136,-3 -2.534771,0 -2.203758,1.522111 0.854097,3.92742 C 19.008154,56.580855 19.04009,56.56647 17.693898,53 Z M 49.25,53.192908 C 51.492987,51.266652 51.480784,50 49.219238,50 c -1.061235,0 -2.239366,1.214978 -2.915761,3.006954 -1.209254,3.20368 -0.611341,3.241414 2.946523,0.185954 z M 14.153818,40.866645 C 13.963418,37.36499 13.599361,34.1625 13.344801,33.75 13.090242,33.3375 11.108524,33 8.940983,33 c -3.6349557,0 -3.9402244,0.213544 -3.9312141,2.75 0.00537,1.5125 1.1069644,5.106658 2.447981,7.987019 2.2068578,4.740095 2.6566431,5.154432 4.7402311,4.366645 2.126144,-0.803876 2.275571,-1.356788 1.955837,-7.237019 z M 56.536236,43.75 c 1.344324,-2.8875 2.448622,-6.4875 2.453995,-8 0.009,-2.536456 -0.296258,-2.75 -3.931214,-2.75 -2.167541,0 -4.13348,0.3375 -4.368753,0.75 -0.235274,0.4125 -0.734854,3.568484 -1.110178,7.013299 -0.64358,5.906921 -0.551474,6.315834 1.618753,7.186613 1.265639,0.507824 2.434363,0.951839 2.597166,0.986702 0.162802,0.03486 1.395906,-2.299114 2.740231,-5.186614 z M 26.360429,45.364076 31,44.728152 V 38.864076 33 h -7.613544 -7.613544 l 0.670505,4.75 c 1.277265,9.048432 1.000813,8.836177 9.917012,7.614076 z M 46.375652,44.25 c 0.280735,-0.9625 0.812154,-3.8875 1.180931,-6.5 L 48.227088,33 H 40.613544 33 v 5.936642 5.936641 l 3.25,0.403321 c 7.632202,0.947148 9.608402,0.746788 10.125652,-1.026604 z m -33.030851,-14 c 0.25456,-0.4125 0.618617,-3.61499 0.809017,-7.116645 0.319734,-5.880231 0.170307,-6.433143 -1.955837,-7.237019 C 10.114393,15.108549 9.6646077,15.522886 7.4577499,20.262981 6.1167333,23.143342 5.0151418,26.7375 5.0097689,28.25 5.0007586,30.786456 5.3060273,31 8.940983,31 c 2.167541,0 4.149259,-0.3375 4.403818,-0.75 z M 31,25.135924 V 19.271848 L 26.360429,18.635924 C 17.44423,17.413823 17.720682,17.201568 16.443417,26.25 L 15.772912,31 H 23.386456 31 Z M 47.556583,26.25 C 46.279318,17.201568 46.55577,17.413823 37.639571,18.635924 L 33,19.271848 V 25.135924 31 h 7.613544 7.613544 z m 11.433648,2 c -0.0054,-1.5125 -1.106964,-5.106658 -2.447981,-7.987019 -2.206858,-4.740095 -2.656643,-5.154432 -4.740231,-4.366645 -2.126144,0.803876 -2.275571,1.356788 -1.955837,7.237019 0.1904,3.501655 0.554457,6.704145 0.809017,7.116645 0.254559,0.4125 2.236277,0.75 4.403818,0.75 3.634956,0 3.940224,-0.213544 3.931214,-2.75 z M 31,10.5 C 31,5.3496048 30.846288,5 28.581787,5 24.593026,5 23.01356,6.0530962 20.957403,10.083497 19.880831,12.193752 19,14.130255 19,14.386838 c 0,0.755708 3.194458,1.37282 7.75,1.497161 L 31,16 Z m 13.568605,4.264729 C 45.473949,13.859384 41.257188,6.3126701 39.460809,5.6233347 38.567398,5.2805006 36.748229,5 35.418213,5 33.147258,5 33,5.3424663 33,10.62383 v 5.62383 l 5.498843,-0.456007 c 3.024364,-0.250803 5.755757,-0.71292 6.069762,-1.026924 z M 17.696523,10.993046 C 18.905777,7.7893662 18.307864,7.7516322 14.75,10.807092 12.507013,12.733348 12.519216,14 14.780762,14 c 1.061235,0 2.239366,-1.214978 2.915761,-3.006954 z M 51,13.154988 C 51,12.298926 48.467807,9.8513548 46.334239,8.64515 45.450327,8.1454333 45.442889,8.7130888 46.303477,10.993046 47.326543,13.703457 51,15.394452 51,13.154988 Z"
       style="fill:#707070" />
    <path
       id="path7309"
       d="M 22.299837,62.199182 C 11.436795,58.317633 4.5145259,51.017601 1.3391218,40.094594 -1.6286601,29.885783 1.7382813,17.328385 9.5333333,9.5333333 c 12.1587557,-12.1587555 32.7745777,-12.1587555 44.9333337,0 9.118023,9.1180237 11.803055,24.0176587 6.406959,35.5531487 -6.849714,14.642958 -24.085809,22.2895 -38.573789,17.1127 z M 31,53.440983 V 48 l -4.75,0.01531 c -6.757179,0.02178 -7.745591,0.863148 -5.97899,5.089492 1.692554,4.049199 3.366133,5.566504 6.72899,6.100655 3.710374,0.58935 4,0.171965 4,-5.764477 z m 9.904904,4.174822 c 0.772697,-0.613693 2.043536,-2.643643 2.824086,-4.511 1.766601,-4.226344 0.778189,-5.067709 -5.97899,-5.089492 L 33,48 v 5.333333 c 0,2.933334 0.235576,5.56891 0.523502,5.856836 0.775072,0.775072 5.762653,-0.288719 7.381402,-1.574364 z M 17.850155,53 c -0.667703,-1.915375 -1.73352,-3 -2.94798,-3 -2.6495,0 -2.372484,1.484894 0.732684,3.92742 3.389913,2.666506 3.458182,2.637925 2.215296,-0.92742 z M 49.25,53.192908 C 51.530877,51.234113 51.472059,50 49.097825,50 c -1.21923,0 -2.28194,1.089396 -2.959918,3.034245 -1.12634,3.23102 -0.502483,3.262826 3.112093,0.158663 z M 13.343048,48.059673 c 2.278345,-0.866225 2.403561,-1.240545 1.588956,-4.75 C 14.445644,41.214353 14.036978,38.0375 14.023857,36.25 14.000502,33.068349 13.905363,33 9.5,33 5.1826009,33 5,33.119825 5,35.952947 5,38.975703 6.3409871,42.757805 8.8282176,46.75 c 1.6228344,2.604773 1.3310684,2.520137 4.5148304,1.309673 z M 56.277899,44.69624 c 1.050723,-2.024695 2.152288,-5.484632 2.447922,-7.688751 L 59.263338,33 h -4.631669 c -4.553912,0 -4.63207,0.05456 -4.655526,3.25 -0.01312,1.7875 -0.422399,4.967065 -0.909506,7.0657 -0.790428,3.405445 -0.653466,3.908955 1.273856,4.683052 3.074275,1.234763 3.789109,0.837157 5.937406,-3.302512 z M 29.25,45.059611 C 30.715599,45.009688 31,44.02491 31,39 v -6 h -7.615223 -7.615224 l 0.706767,5.656771 c 1.02745,8.223427 0.940149,8.123408 6.317293,7.237686 C 25.382126,45.468078 28.2875,45.092397 29.25,45.059611 Z M 47.51769,38.75 48.230447,33 H 40.615223 33 v 5.912692 5.912692 l 6.25,0.866551 c 4.12678,0.572171 6.471653,0.516902 6.902467,-0.162692 C 46.511323,44.963159 47.125674,41.9125 47.51769,38.75 Z m -33.493833,-11 c 0.01312,-1.7875 0.421787,-4.964353 0.908147,-7.059673 0.815875,-3.514926 0.691485,-3.882978 -1.607773,-4.757154 C 11.953596,15.412058 10.472184,15.208174 10.032203,15.480097 8.4527313,16.456265 5,25.039032 5,27.989102 5,30.890907 5.163047,31 9.5,31 c 4.405363,0 4.500502,-0.06835 4.523857,-3.25 z M 31,25.087308 V 19.174616 L 24.75,18.308065 C 20.62322,17.735894 18.278347,17.791163 17.847533,18.470757 17.488677,19.036841 16.874326,22.0875 16.48231,25.25 L 15.769553,31 H 23.384777 31 Z M 47.51769,25.25 C 47.125674,22.0875 46.511323,19.036841 46.152467,18.470757 45.721653,17.791163 43.37678,17.735894 39.25,18.308065 L 33,19.174616 V 25.087308 31 h 7.615223 7.615224 z M 59,28.86602 c 0,-3.214899 -1.987179,-9.197563 -3.895242,-11.727139 -1.427225,-1.892115 -2.105275,-2.089183 -4.307457,-1.251915 -2.434328,0.92553 -2.552942,1.254996 -1.729305,4.803361 0.48636,2.09532 0.895026,5.272173 0.908147,7.059673 C 49.999498,30.931651 50.094637,31 54.5,31 58.42751,31 59,30.728515 59,28.86602 Z M 30.799904,10.25 C 30.500297,4.5056954 30.497029,4.5003438 27.5,4.8470754 c -3.820277,0.4419748 -5.458578,1.8126558 -7.22899,6.0481196 -1.769146,4.232432 -0.779622,5.067772 6.028894,5.089492 L 31.099808,16 Z m 13.024182,4.879882 c 1.09338,-0.69322 1.076811,-1.431065 -0.0951,-4.234687 C 41.958578,6.6597312 40.320277,5.2890502 36.5,4.8470754 33.502971,4.5003438 33.499703,4.5056954 33.200096,10.25 L 32.900192,16 37.700096,15.98469 c 2.639947,-0.0084 5.395743,-0.393084 6.12399,-0.854805 z M 17.862093,10.965755 C 18.988433,7.7347347 18.364576,7.7029288 14.75,10.807092 12.469123,12.765887 12.527941,14 14.902175,14 c 1.21923,0 2.28194,-1.089396 2.959918,-3.034245 z M 51,13.154988 C 51,12.292414 48.468055,9.8533569 46.290082,8.6178592 45.361558,8.0911364 45.326166,8.6371953 46.137907,10.965755 46.815885,12.910604 47.878595,14 49.097825,14 50.144021,14 51,13.619744 51,13.154988 Z"
       style="fill:#515151" />
    <path
       id="path7307"
       d="M 24.734467,62.970467 C 15.471491,60.644183 6.8264485,53.348712 2.8471907,44.5 -0.28463218,37.535736 -0.28518033,26.466565 2.8459527,19.5 5.7864315,12.957628 13.038181,5.6738677 19.40811,2.8647351 26.508554,-0.26655388 37.556477,-0.27482374 44.5,2.8459527 51.042372,5.7864315 58.326132,13.038181 61.135265,19.40811 c 3.12165,7.078588 3.12165,18.105192 0,25.18378 C 58.366919,50.869332 51.043242,58.226709 44.843131,60.958993 39.36528,63.372989 30.04829,64.30497 24.734467,62.970467 Z M 31,53.547115 V 47.09423 l -5.25,0.581783 c -2.8875,0.31998 -5.610617,0.906896 -6.051372,1.304257 -0.440755,0.397361 -0.05448,2.589128 0.858376,4.870593 1.266036,3.164137 2.404978,4.364058 4.801372,5.05844 C 30.945228,60.528156 31,60.476097 31,53.547115 Z m 7.149078,5.42817 c 2.968461,-0.824514 3.957259,-1.783783 5.301372,-5.143051 0.908762,-2.271219 1.291677,-4.454603 0.850922,-4.851964 C 43.860617,48.582909 41.1375,47.995993 38.25,47.676013 L 33,47.09423 v 6.452885 c 0,3.549087 0.3375,6.450375 0.75,6.447308 0.4125,-0.0031 2.392085,-0.461679 4.399078,-1.019138 z M 19,55.547053 C 19,53.192985 16.317323,50 14.339485,50 11.283482,50 11.386495,50.922555 14.75,53.676473 17.3655,55.81795 19,56.537353 19,55.547053 Z M 49.040493,53.811942 C 52.607035,51.175083 52.798165,50 49.660515,50 c -1.536555,0 -2.737783,0.874169 -3.5,2.547053 -1.940123,4.258106 -1.4561,4.470689 2.879978,1.264889 z M 13.343048,48.059673 c 2.278345,-0.866225 2.403561,-1.240545 1.588956,-4.75 C 14.445644,41.214353 14.036978,38.0375 14.023857,36.25 14.000549,33.074795 13.897796,33 9.559017,33 7.1164763,33 4.9205934,33.3375 4.6792772,33.75 3.5701125,35.645978 8.6303463,49 10.457953,49 c 0.226516,0 1.524809,-0.423147 2.885095,-0.940327 z M 56.686339,43.9551 c 1.202487,-2.450305 2.327487,-5.8051 2.5,-7.4551 C 59.491716,33.579234 59.374546,33.49195 54.75,33.195209 L 50,32.890418 49.97614,36.195209 c -0.01312,1.817635 -0.422399,5.021856 -0.909506,7.120491 -0.790428,3.405445 -0.653466,3.908955 1.273856,4.683052 3.223412,1.294663 3.954776,0.828629 6.345846,-4.043652 z M 27.25,45.496553 31,44.909374 V 38.954687 33 h -7.637681 -7.637682 l 0.636418,5.414918 c 0.907426,7.720785 1.376897,8.568027 4.479398,8.083857 C 22.303204,46.270501 25.1875,45.819501 27.25,45.496553 Z m 19.144275,-0.08163 c 0.334539,-0.871794 0.894641,-4.021794 1.24467,-7 L 48.275363,33 H 40.637681 33 v 5.954687 c 0,6.607142 -0.896198,5.87132 9,7.389438 1.375,0.210931 2.789355,0.444793 3.143011,0.519693 0.353656,0.0749 0.916725,-0.577105 1.251264,-1.4489 z M 14.023857,27.75 c 0.01312,-1.7875 0.421787,-4.964353 0.908147,-7.059673 0.815875,-3.514926 0.691485,-3.882978 -1.607773,-4.757154 C 11.953596,15.412058 10.41673,15.242447 9.9089723,15.556258 7.5944562,16.986708 3.4282293,29.094896 4.7840396,30.450706 5.0861511,30.752818 7.2833333,31 9.6666667,31 13.883995,31 14.000639,30.913 14.023857,27.75 Z M 31,25.045313 v -5.954687 l -3.75,-0.587179 c -2.0625,-0.322948 -4.946796,-0.773948 -6.409547,-1.002222 -3.102501,-0.48417 -3.571972,0.363072 -4.479398,8.083857 L 15.724637,31 H 23.362319 31 Z m 16.638945,0.539769 C 46.731519,17.864297 46.262048,17.017055 43.159547,17.501225 41.696796,17.729499 38.8125,18.180499 36.75,18.503447 L 33,19.090626 V 25.045313 31 h 7.637681 7.637682 z M 59.164306,27.5 c -0.397149,-3.549196 -3.50121,-10.97215 -4.967075,-11.878104 -0.566169,-0.349912 -2.150827,-0.209838 -3.521462,0.311277 -2.299258,0.874176 -2.423648,1.242228 -1.607773,4.757154 0.48636,2.09532 0.895026,5.296829 0.908147,7.114464 L 50,31.109582 54.75,30.804791 C 59.380207,30.507687 59.491534,30.424341 59.164306,27.5 Z M 31,10.5 c 0,-3.575 -0.3375,-6.4974904 -0.75,-6.4944231 -0.4125,0.00307 -2.392085,0.4616794 -4.399078,1.019138 -2.968461,0.8245142 -3.957259,1.7837831 -5.301372,5.1430511 -0.908762,2.271219 -1.291677,4.482535 -0.850922,4.914036 0.440755,0.4315 2.601372,0.963971 4.801372,1.183269 2.2,0.219297 4.5625,0.474369 5.25,0.566826 C 30.639036,16.951457 31,15.122988 31,10.5 Z m 13.301372,4.51973 C 44.742127,14.622369 44.359212,12.438985 43.45045,10.167766 42.106337,6.808498 41.117539,5.8492291 38.149078,5.0247149 36.142085,4.4672563 34.1625,4.0086442 33.75,4.0055769 33.3375,4.0025096 33,6.9037983 33,10.452885 v 6.452885 l 5.25,-0.581783 c 2.8875,-0.31998 5.610617,-0.906896 6.051372,-1.304257 z M 17.876926,11.370774 C 19.516526,7.7722433 18.717722,7.4094903 15.07861,10.100002 11.397869,12.821292 11.174481,14 14.339485,14 c 1.555693,0 2.740833,-0.880863 3.537441,-2.629226 z M 52,13.188058 C 52,12.137487 45.98723,7.6794364 45.383949,8.2827174 45.131593,8.5350741 45.464199,9.9246995 46.123074,11.370774 46.919682,13.119137 48.104822,14 49.660515,14 50.947232,14 52,13.634626 52,13.188058 Z"
       style="fill:#2f2f2f" />
    <path
       id="path7305"
       d="M 26.131739,62.943664 C 11.188397,59.934136 0.66975939,47.15095 0.66975939,32 0.66975939,23.080517 3.4890636,16.350936 9.92,9.92 16.350936,3.4890636 23.080517,0.66975939 32,0.66975939 c 8.919483,0 15.649064,2.81930421 22.08,9.25024061 6.430936,6.430936 9.250241,13.160517 9.250241,22.08 0,19.611363 -18.218203,34.766219 -37.198502,30.943664 z M 31,53.369158 v -6.630843 l -3.75,0.619837 c -2.0625,0.34091 -4.7625,0.624789 -6,0.630842 -2.801699,0.01371 -2.87253,1.870423 -0.266244,6.979164 1.873798,3.672949 3.283637,4.507922 8.266244,4.89566 1.504413,0.117071 1.75,-0.79436 1.75,-6.49466 z m 6.923383,5.996165 c 2.370972,-0.474194 3.666863,-1.601976 5.125,-4.460162 2.574563,-5.046559 2.494492,-6.902506 -0.298383,-6.916167 -1.2375,-0.0061 -3.9375,-0.289932 -6,-0.630842 L 33,46.738315 v 6.630843 C 33,57.016121 33.39375,60 33.875,60 c 0.48125,0 2.303022,-0.285604 4.048383,-0.634677 z M 18.493535,54.25 C 18.097292,53.2875 17.543363,51.699881 17.262582,50.721957 16.89321,49.435484 16.164293,49.124245 14.626035,49.596185 11.308109,50.614129 11.295434,51.015251 14.5,53.584669 18.048731,56.430038 19.489859,56.670132 18.493535,54.25 Z M 49.5,53.584669 c 3.204566,-2.569418 3.191891,-2.97054 -0.126035,-3.988484 -1.538258,-0.47194 -2.267175,-0.160701 -2.636547,1.125772 C 46.456637,51.699881 45.902708,53.2875 45.506465,54.25 44.510141,56.670132 45.951269,56.430038 49.5,53.584669 Z M 15.667725,47.665608 c 0.0945,-0.0945 -0.341672,-3.432926 -0.969279,-7.418717 L 13.557342,33 H 8.7786708 C 6.1504019,33 4,33.378481 4,33.841069 c 0,2.007091 2.9756145,10.472769 4.4974918,12.795447 1.3465703,2.055126 2.1730312,2.41201 4.3312562,1.87033 1.466934,-0.368177 2.744474,-0.746734 2.838977,-0.841238 z M 56.670779,44 c 1.193929,-2.475 2.467184,-5.9625 2.829456,-7.75 L 60.158911,33 h -4.950625 -4.950625 l -0.684741,5.25 c -0.376608,2.8875 -0.923217,6.222064 -1.214686,7.410142 -0.376056,1.532866 0.0032,2.300774 1.305911,2.644436 3.567499,0.9411 4.858854,0.147746 7.006634,-4.304578 z M 26.081787,46 H 31 V 39.5 33 h -7.642456 -7.642457 l 0.636016,6.08507 c 0.734554,7.027839 1.286689,8.2679 3.331835,7.483104 C 20.497288,46.255678 23.376771,46 26.081787,46 Z m 21.049898,-2.582498 c 0.347427,-1.604626 0.684927,-4.605002 0.75,-6.667502 L 48,33 H 40.5 33 v 6.450096 6.450096 l 5.75,0.350863 c 7.725358,0.471399 7.661432,0.49301 8.381685,-2.833553 z M 14.698446,23.753109 c 0.627607,-3.985791 1.006915,-7.381081 0.842906,-7.545091 C 15.377342,16.044009 13.950944,15.81761 12.371576,15.70491 9.8800999,15.527123 9.212662,16.095648 7.3292207,20 6.1352921,22.475 4.8620373,25.9625 4.4997655,27.75 L 3.8410895,31 H 8.6992156 13.557342 Z M 31,24.620191 v -6.379809 l -6.25,-0.49159 c -3.4375,-0.270375 -6.5847,-0.192261 -6.993778,0.173587 -0.409078,0.365847 -1.035683,3.457977 -1.392456,6.871399 L 15.715087,31 H 23.357544 31 Z m 16.636234,0.173587 C 47.279461,21.380356 46.652856,18.288226 46.243778,17.922379 45.8347,17.556531 42.6875,17.478417 39.25,17.748792 L 33,18.240382 V 24.620191 31 h 7.642456 7.642457 z M 59.500235,27.75 C 59.137963,25.9625 57.864708,22.475 56.670779,20 54.787338,16.095648 54.1199,15.527123 51.628424,15.70491 c -1.579368,0.1127 -3.015248,0.348581 -3.190847,0.524179 -0.175598,0.175599 0.184034,3.570889 0.799183,7.545091 L 50.355213,31 h 4.901849 4.901849 z M 31,10.5 C 31,6.925 30.60625,4 30.125,4 25.559165,4 22.75678,5.5564268 20.951617,9.0948385 18.107829,14.669123 18.395224,15.816008 22.75,16.271532 31.729241,17.210789 31,17.720951 31,10.5 Z m 11.75,5.511006 C 44.10444,16.004381 45,15.387103 45,14.460162 45,12.387384 41.177271,5 40.104676,5 39.634604,5 37.84375,4.71875 36.125,4.375 L 33,3.75 v 6.755842 6.755843 l 3.75,-0.619837 c 2.0625,-0.34091 4.7625,-0.624789 6,-0.630842 z M 17.763372,11.815943 c 1.562131,-4.1385566 1.020479,-4.5102826 -2.705797,-1.8569402 -4.184805,2.9798442 -4.015904,3.8345992 0.973187,4.9249962 0.29192,0.0638 1.071594,-1.316825 1.73261,-3.068056 z M 51.081787,14 c 1.854403,0 0.837095,-1.921573 -2.139362,-4.0409972 -3.730209,-2.6561432 -4.268074,-2.2820048 -2.69826,1.8769072 0.761141,2.016494 1.711602,3.011305 2.564397,2.684057 C 49.553819,14.233985 50.576771,14 51.081787,14 Z"
       style="fill:#010101" />
  </g>
</svg>
