<?xml version="1.0" encoding="utf-8"?>
<!-- Generator: Adobe Illustrator 19.0.0, SVG Export Plug-In . SVG Version: 6.00 Build 0)  -->
<svg version="1.1" id="Capa_1" xmlns="http://www.w3.org/2000/svg" xmlns:xlink="http://www.w3.org/1999/xlink" x="0px" y="0px"
	 viewBox="-154 246.8 301.2 301.2" style="enable-background:new -154 246.8 301.2 301.2;" xml:space="preserve">
<style type="text/css">
	.st0{display:none;fill:#9C9AD8;}
</style>
<circle class="st0" cx="-3.4" cy="397.4" r="150.6"/>
<g>
	<path d="M-4.1,465.2h-84.3c-3.3,0-6,2.7-6,6v6c0,3.3,2.7,6,6,6h84.3c3.3,0,6-2.7,6-6v-6C1.9,467.9-0.8,465.2-4.1,465.2z"/>
	<path d="M-88.5,445.3h72.9c3.3,0,6-2.7,6-6v-6c0-3.3-2.7-6-6-6h-72.9c-3.3,0-6,2.7-6,6v6C-94.5,442.6-91.8,445.3-88.5,445.3z"/>
	<path d="M-88.5,407.1h61.6c3.3,0,6-2.7,6-6v-6c0-3.3-2.7-6-6-6h-61.6c-3.3,0-6,2.7-6,6v6C-94.5,404.4-91.8,407.1-88.5,407.1z"/>
	<path d="M-88.5,364.8h50.2c3.3,0,6-2.7,6-6v-6c0-3.3-2.7-6-6-6h-50.2c-3.3,0-6,2.7-6,6v6C-94.5,362.1-91.8,364.8-88.5,364.8z"/>
	<path d="M-88.5,326.7h38.9c3.3,0,6-2.7,6-6v-6c0-3.3-2.7-6-6-6h-38.9c-3.3,0-6,2.7-6,6v6C-94.5,324-91.8,326.7-88.5,326.7z"/>
	<path d="M86,437.5l-4.3-4.3c-1.1-1.1-2.7-1.8-4.3-1.8c-1.6,0-3.1,0.6-4.3,1.8L52.3,454V317.6c0-3.3-2.7-6-6-6h-6c-3.3,0-6,2.7-6,6
		V454l-20.8-20.8c-1.1-1.1-2.7-1.8-4.3-1.8s-3.1,0.6-4.3,1.8l-4.3,4.3c-2.4,2.4-2.4,6.2,0,8.6L39,484.5c1.1,1.1,2.7,1.8,4.3,1.8
		s3.1-0.6,4.3-1.8L86,446C88.3,443.7,88.3,439.8,86,437.5z"/>
</g>
</svg>
