<?xml version="1.0" encoding="UTF-8" standalone="no"?>
<svg
   xmlns:dc="http://purl.org/dc/elements/1.1/"
   xmlns:cc="http://creativecommons.org/ns#"
   xmlns:rdf="http://www.w3.org/1999/02/22-rdf-syntax-ns#"
   xmlns:svg="http://www.w3.org/2000/svg"
   xmlns="http://www.w3.org/2000/svg"
   viewBox="0 0 120 120"
   height="120"
   width="120"
   id="svg977"
   version="1.1">
  <metadata
     id="metadata983">
    <rdf:RDF>
      <cc:Work
         rdf:about="">
        <dc:format>image/svg+xml</dc:format>
        <dc:type
           rdf:resource="http://purl.org/dc/dcmitype/StillImage" />
        <dc:title></dc:title>
      </cc:Work>
    </rdf:RDF>
  </metadata>
  <defs
     id="defs981" />
  <g
     transform="translate(0.50847186,-0.50847459)"
     id="g987">
    <path
       id="path1001"
       d="M 42,79 V 62 h -2.432612 c -1.476079,0 -2.660241,0.717193 -3.011506,1.823932 -0.318392,1.003163 -1.864426,3.05555 -3.435632,4.560861 -3.926981,3.762287 -9.80416,3.856415 -14.554565,0.233105 C 16.677952,67.178054 14.428419,66 13.566722,66 12.666667,66 12,65.148966 12,64 12,62.222222 11.333333,62 6,62 2.6666667,62 0,61.555556 0,61 0,60.444444 2.6666667,60 6,60 h 6 v -3 c 0,-2.056783 0.492586,-3 1.566722,-3 0.861697,0 3.11123,-1.178054 4.998963,-2.617898 C 23.790757,47.396745 29.49948,47.789029 33.75,52.425515 35.5375,54.375328 37,56.877238 37,57.985315 37,59.467646 37.660592,60 39.5,60 H 42 V 41.5 C 42,29.833333 42.369369,23 43,23 c 0.630631,0 1,6.833333 1,18.5 V 60 H 52.5 61 V 49.5 39 H 82.5 104 V 49.5 60 h 8 c 4.66667,0 8,0.416667 8,1 0,0.583333 -3.33333,1 -8,1 h -8 V 71.5 81 H 82.5 61 V 71.5 62 H 52.5 44 v 17 c 0,10.666667 -0.372549,17 -1,17 -0.627451,0 -1,-6.333333 -1,-17 z M 99,69.5 V 62 h -3 c -1.660087,0 -3,0.533858 -3,1.195281 0,0.657405 -1.209191,2.457405 -2.687091,4 -3.765347,3.930175 -10.471993,3.98455 -14.50819,0.117628 C 74.262123,65.835009 73,64.035009 73,63.312909 73,62.479108 71.722776,62 69.5,62 H 66 V 69.5 77 H 82.5 99 Z M 29.777494,65.443296 C 33.07423,63.134172 32.48875,62 28,62 c -3.6,0 -4,0.25 -4,2.5 0,2.942411 2.370735,3.329483 5.777494,0.943296 z M 86.8,64.8 C 89.000151,62.599849 88.045751,62 82.345012,62 76.753367,62 76.710298,62.0224 78.5,64 c 2.011218,2.222371 6.449813,2.650187 8.3,0.8 z M 32.281749,57.969409 C 31.654759,55.571795 28.288642,53 25.777494,53 24.412739,53 24,53.81271 24,56.5 c 0,3.470465 0.03718,3.5 4.40638,3.5 3.936179,0 4.349717,-0.216683 3.875369,-2.030591 z M 72.839048,57.5 c 0.195484,-1.1 1.520861,-3.2375 2.94528,-4.75 C 77.884867,50.519573 79.248164,50 83,50 c 3.762851,0 5.127106,0.523233 7.312909,2.804719 1.4779,1.542595 2.687091,3.792595 2.687091,5 C 93,59.577253 93.577712,60 96,60 h 3 V 51.5 43 H 82.5 66 v 8.563358 8.563359 l 3.241811,-0.313359 C 71.55959,59.589318 72.58493,58.929929 72.839048,57.5 Z M 89,59.222506 c 0,-0.427621 -0.700517,-1.777621 -1.556704,-3 C 85.582495,53.565841 81.43886,53.292862 78.828741,55.654988 75.37228,58.783041 76.540574,60 83,60 c 3.3,0 6,-0.349872 6,-0.777494 z"
       style="fill:#dbdbdb" />
    <path
       id="path999"
       d="M 61,60 V 39 H 82.5 104 V 60 81 H 82.5 61 Z m 38,0 V 43 H 82.5 66 V 60 77 H 82.5 99 Z m -22.225171,7.745033 c -5.202812,-4.286147 -5.479106,-9.709088 -0.752466,-14.768973 7.330491,-7.847315 20.623532,0.825928 16.4562,10.737093 -2.585681,6.149525 -10.627052,8.214119 -15.703734,4.03188 z m 10.39643,-3.400021 c 2.277014,-2.060668 2.359449,-6.101105 0.173753,-8.516271 C 83.911139,52.034354 77,54.704947 77,59.826247 c 0,5.349007 6.206846,8.10651 10.171259,4.518765 z M 18.594501,68.5 C 17.110851,67.125 15.020141,66 13.948478,66 12.233672,66 12,65.280449 12,60 c 0,-5.280449 0.233672,-6 1.948478,-6 1.071663,0 3.162373,-1.125 4.646023,-2.5 2.043918,-1.89424 3.784496,-2.5 7.183445,-2.5 3.848364,0 4.96457,0.507539 7.853977,3.571202 C 36.256785,55.354367 37,56.993639 37,60 37,63.006361 36.256785,64.645633 33.631923,67.428798 30.742516,70.492461 29.62631,71 25.777946,71 22.378997,71 20.638419,70.39424 18.594501,68.5 Z m 11.6726,-3.25 C 34.502156,60.55058 31.981383,53 26.17742,53 23.529186,53 23.5,53.076305 23.5,60 c 0,6.868345 0.04881,7 2.595012,7 1.427257,0 3.304697,-0.7875 4.172089,-1.75 z"
       style="fill:#bfcfe0" />
    <path
       id="path997"
       d="m 61.816413,70.821875 c -0.174027,-5.597969 -0.17584,-15.047969 -0.004,-21 L 62.124768,39 H 82.5 102.87523 l 0.31239,10.821875 c 0.17181,5.952031 0.16999,15.402031 -0.004,21 L 102.86717,81 H 82.5 62.132827 Z M 99.918962,60 99.932471,43 H 82.5 65.067529 l 0.01351,17 0.01351,17 H 82.5 99.905453 Z M 76.774829,67.745033 C 71.572017,63.458886 71.295723,58.035945 76.022363,52.97606 82.177235,46.387249 93,50.995205 93,60.204545 c 0,8.219989 -9.845934,12.795789 -16.225171,7.540488 z m 10.653742,-3.316462 c 2.02104,-2.021039 2.02104,-6.836103 0,-8.857142 C 86.564286,54.707143 84.571429,54 83,54 c -3.644261,0 -6,2.355739 -6,6 0,3.644261 2.355739,6 6,6 1.571429,0 3.564286,-0.707143 4.428571,-1.571429 z M 19.75,69.241774 C 18.2375,68.304019 17,67.190994 17,66.768383 17,66.345772 15.875,66 14.5,66 12.111111,66 12,65.733333 12,60 12,54.266667 12.111111,54 14.5,54 15.875,54 17,53.647023 17,53.215608 17,51.630066 22.915214,49 26.481215,49 c 2.710954,0 4.424628,0.751997 6.544496,2.871865 5.137321,5.137321 5.137321,11.118949 0,16.25627 C 29.641401,71.512445 24.1547,71.9727 19.75,69.241774 Z m 10.641419,-3.538719 c 0.975523,-0.71332 1.993883,-2.930969 2.263022,-4.928108 0.656871,-4.874294 -2.16408,-7.806323 -7.404441,-7.696 -2.0625,0.04342 -3.1875,0.305921 -2.5,0.583334 1.706209,0.68847 1.706209,11.986968 0,12.675438 -0.6875,0.277413 0.351492,0.539913 2.30887,0.583334 1.957379,0.04342 4.357026,-0.504678 5.332549,-1.217998 z"
       style="fill:#bccbdd" />
    <path
       id="path995"
       d="m 61.816413,70.821875 c -0.174027,-5.597969 -0.17584,-15.047969 -0.004,-21 L 62.124768,39 H 82.5 102.87523 l 0.31239,10.821875 c 0.17181,5.952031 0.16999,15.402031 -0.004,21 L 102.86717,81 H 82.5 62.132827 Z M 99.918962,60 99.932471,43 H 82.5 65.067529 l 0.01351,17 0.01351,17 H 82.5 99.905453 Z M 78.110071,68.604493 C 69.440667,63.799411 73.067648,50 83,50 c 5.066873,0 10,4.885417 10,9.903287 0,7.507418 -8.296527,12.355648 -14.889929,8.701206 z m 9.3185,-4.175922 c 2.02104,-2.021039 2.02104,-6.836103 0,-8.857142 -1.631911,-1.631912 -6.126069,-2.08397 -8.014034,-0.806116 -3.339322,2.260194 -3.398781,8.352731 -0.101976,10.449022 2.029247,1.290308 6.469864,0.860383 8.11601,-0.785764 z M 19.75,69.241774 C 18.2375,68.304019 17,67.190994 17,66.768383 17,66.345772 15.875,66 14.5,66 12.111111,66 12,65.733333 12,60 c 0,-5.733333 0.111111,-6 2.5,-6 1.375,0 2.5,-0.352977 2.5,-0.784392 0,-1.417461 5.74962,-4.215685 8.654292,-4.21187 4.340971,0.0057 8.972402,3.335103 10.320166,7.418868 C 39.212518,66.234024 28.52222,74.680575 19.75,69.241774 Z M 31,65 c 4.661701,-4.661701 1.090761,-12.065069 -5.75,-11.921053 -2.0625,0.04342 -3.1875,0.305921 -2.5,0.583334 1.706209,0.68847 1.706209,11.986968 0,12.675438 -0.6875,0.277413 0.4375,0.539913 2.5,0.583334 C 27.745704,66.973594 29.668958,66.331042 31,65 Z M 20,59.940983 c 0,-1.132459 -0.430347,-1.793048 -0.956326,-1.467975 -0.525979,0.325073 -0.702834,1.251631 -0.393011,2.059017 C 19.443889,62.599138 20,62.355548 20,59.940983 Z"
       style="fill:#a4b9cf" />
    <path
       id="path993"
       d="M 62,60 V 39 H 82.5 103 V 60 81 H 82.5 62 Z m 38,0 V 43 H 82.5 65 V 60 77 H 82.5 100 Z m -21.617059,8.416712 c -10.814356,-5.335077 -3.494058,-21.248726 8.025594,-17.446898 7.651737,2.525301 8.429928,13.980833 1.183337,17.419566 -4.163423,1.975673 -5.253032,1.978907 -9.208931,0.02733 z m 9.581875,-4.350971 c 1.529071,-2.857094 1.257254,-7.63655 -0.5181,-9.109963 C 82.97319,51.243082 75.159632,55.515571 76.518863,60.931177 77.516889,64.907633 78.932426,66 83.087261,66 c 2.775384,0 4.129831,-0.537124 4.877555,-1.934259 z M 19.595138,68.5 C 17.568962,67.125 15.031166,66 13.955591,66 12.232091,66 12,65.287916 12,60 c 0,-5.287916 0.232091,-6 1.955591,-6 1.075575,0 3.613371,-1.125 5.639547,-2.5 4.092515,-2.777256 5.675827,-2.998706 10.189655,-1.425177 8.515682,2.968583 8.901037,16.069366 0.575004,19.548204 C 25.727807,71.558396 23.806583,71.357964 19.595138,68.5 Z M 31,65 c 4.482526,-4.482526 1.121135,-12 -5.365726,-12 h -3.365726 l 0.756553,4.137267 c 0.416104,2.275496 0.387093,5.425496 -0.06447,7 C 22.170939,66.890766 22.270498,67 25.569806,67 27.666667,67 29.77741,66.22259 31,65 Z M 20,59.8 c 0,-1.615417 -0.295711,-1.904289 -1.112868,-1.087132 -0.612077,0.612077 -0.810519,1.602077 -0.440983,2.2 C 19.480541,62.586548 20,62.214511 20,59.8 Z"
       style="fill:#91abc8" />
    <path
       id="path991"
       d="M 62,60 V 39 H 82.5 103 V 60 81 H 82.5 62 Z m 38,0 V 43 H 82.5 65 V 60 77 H 82.5 100 Z M 79.5,69.092487 C 73.127279,66.363598 71.442156,58.103298 76.272727,53.272727 82.345118,47.200336 92.454545,51.403132 92.454545,60 c 0,6.585087 -7.1275,11.587711 -12.954545,9.092487 z m 7.449213,-3.850278 C 91.540522,61.524392 88.681849,53 82.843761,53 80.27528,53 76,57.372882 76,60 c 0,2.627118 4.27528,7 6.843761,7 1.064069,0 2.911522,-0.791006 4.105452,-1.757791 z m -65.4496,4.383861 C 19.8494,68.900283 17.8818,67.562504 17.127168,66.653228 16.372536,65.743953 14.910211,65 13.877555,65 12.291156,65 12,64.224642 12,60 c 0,-4.224642 0.291156,-5 1.877555,-5 1.032656,0 2.495156,-0.744707 3.25,-1.654904 2.131503,-2.570181 7.416063,-4.386372 10.796055,-3.710374 6.978608,1.395722 10.363754,9.11724 6.976098,15.91248 -2.092864,4.198039 -8.615139,6.183361 -13.400095,4.078868 z M 31.25,65.226732 C 32.322866,64.284628 33,62.262231 33,60 33,54.416408 28.316121,51.12729 23.241316,53.14725 21.69822,53.761459 21.046371,54.441267 21.75,54.70253 c 1.681212,0.62425 1.681212,9.968922 0,10.600066 -1.954823,0.73386 3.472513,2.627686 5.75,2.006417 1.1,-0.300066 2.7875,-1.237092 3.75,-2.082281 z M 19.588397,58.255064 c -1.092399,-1.092399 -1.841474,0.644857 -1.057177,2.451808 0.743676,1.713366 0.797586,1.711803 1.211936,-0.03514 0.238501,-1.005548 0.16886,-2.093048 -0.154759,-2.416667 z"
       style="fill:#809fc1" />
    <path
       id="path989"
       d="m 15.289749,64 c -0.287656,-1.1 -1.145528,-2 -1.90638,-2 -1.810764,0 -1.783414,-1.632511 0.03907,-2.331862 0.78234,-0.300212 1.56984,-1.585857 1.75,-2.856989 0.239972,-1.693141 1.082866,-2.397686 3.152148,-2.634768 2.579411,-0.29553 2.728256,-0.14363 1.714816,1.75 C 19.429028,57.066871 18.270465,58 17.464816,58 16.659167,58 16,58.45 16,59 c 0,0.55 0.352977,1 0.784392,1 0.431416,0 1.581858,1.35 2.556537,3 l 1.772143,3 h -2.650156 c -1.809151,0 -2.816128,-0.634683 -3.173167,-2 z M 20,61 c 0,-0.55 0.675,-1 1.5,-1 0.825,0 1.5,0.45 1.5,1 0,0.55 -0.675,1 -1.5,1 C 20.675,62 20,61.55 20,61 Z m 13,0 c 0,-0.55 0.675,-1 1.5,-1 0.825,0 1.5,0.45 1.5,1 0,0.55 -0.675,1 -1.5,1 C 33.675,62 33,61.55 33,61 Z m 29,0 c 0,-0.55 0.675,-1 1.5,-1 0.825,0 1.5,0.45 1.5,1 0,0.55 -0.675,1 -1.5,1 C 62.675,62 62,61.55 62,61 Z m 11,0 c 0,-0.55 0.675,-1 1.5,-1 0.825,0 1.5,0.45 1.5,1 0,0.55 -0.675,1 -1.5,1 C 73.675,62 73,61.55 73,61 Z m 16.5,0 c 0.339919,-0.55 1.293034,-1 2.118034,-1 0.825,0 1.221885,0.45 0.881966,1 -0.339919,0.55 -1.293034,1 -2.118034,1 -0.825,0 -1.221885,-0.45 -0.881966,-1 z m 10.5,0 c 0,-0.55 0.675,-1 1.5,-1 0.825,0 1.5,0.45 1.5,1 0,0.55 -0.675,1 -1.5,1 -0.825,0 -1.5,-0.45 -1.5,-1 z"
       style="fill:#6b8eb4" />
  </g>
</svg>
