<?xml version="1.0" encoding="UTF-8" standalone="no"?>
<!-- Created with Inkscape (http://www.inkscape.org/) -->

<svg
   xmlns:dc="http://purl.org/dc/elements/1.1/"
   xmlns:cc="http://creativecommons.org/ns#"
   xmlns:rdf="http://www.w3.org/1999/02/22-rdf-syntax-ns#"
   xmlns:svg="http://www.w3.org/2000/svg"
   xmlns="http://www.w3.org/2000/svg"
   xmlns:sodipodi="http://sodipodi.sourceforge.net/DTD/sodipodi-0.dtd"
   xmlns:inkscape="http://www.inkscape.org/namespaces/inkscape"
   version="1.1"
   id="svg933"
   width="63"
   height="63"
   viewBox="0 0 63 63"
   sodipodi:docname="vistext.svg"
   inkscape:version="0.92.3 (2405546, 2018-03-11)">
  <metadata
     id="metadata939">
    <rdf:RDF>
      <cc:Work
         rdf:about="">
        <dc:format>image/svg+xml</dc:format>
        <dc:type
           rdf:resource="http://purl.org/dc/dcmitype/StillImage" />
        <dc:title></dc:title>
      </cc:Work>
    </rdf:RDF>
  </metadata>
  <defs
     id="defs937" />
  <sodipodi:namedview
     pagecolor="#ffffff"
     bordercolor="#666666"
     borderopacity="1"
     objecttolerance="10"
     gridtolerance="10"
     guidetolerance="10"
     inkscape:pageopacity="0"
     inkscape:pageshadow="2"
     inkscape:window-width="874"
     inkscape:window-height="492"
     id="namedview935"
     showgrid="false"
     inkscape:zoom="3.7460317"
     inkscape:cx="31.5"
     inkscape:cy="31.5"
     inkscape:window-x="0"
     inkscape:window-y="55"
     inkscape:window-maximized="0"
     inkscape:current-layer="svg933" />
  <g
     id="g943">
    <path
       style="fill:#d6e2a4"
       d="m 5.0769231,35.923077 c -4.29225817,-4.292258 -4.29225817,-9.553896 0,-13.846154 4.3413443,-4.341344 9.9447149,-4.335774 14.0079419,0.01393 l 2.887285,3.090849 3.090848,-3.090849 c 4.306699,-4.306699 9.562025,-4.311979 13.860079,-0.01393 L 42,25.153846 45.076923,22.076923 C 47.446154,19.707692 49.038462,19 52,19 c 5.407927,0 10,4.592073 10,10 0,5.407927 -4.592073,10 -10,10 -2.961538,0 -4.553846,-0.707692 -6.923077,-3.076923 L 42,32.846154 38.923077,35.923077 c -4.298054,4.298054 -9.55338,4.292774 -13.860079,-0.01393 l -3.090848,-3.090849 -2.887285,3.090849 c -4.063227,4.349699 -9.6665976,4.355269 -14.0079419,0.01393 z"
       id="path953"
       inkscape:connector-curvature="0" />
    <path
       style="fill:#a1bd34"
       d="M 7.1100713,37.604493 C 0.08854054,33.712757 0.72429813,22.686168 8.1188387,20.108417 13.296771,18.30338 15.104001,18.783795 19.154836,23.042107 21.269676,25.265265 23,26.468707 23,25.716421 c 0,-2.777468 4.949223,-6.170966 9,-6.170966 4.024318,0 9,3.388361 9,6.128859 C 41,26.403441 41.45,27 42,27 c 0.55,0 1,-0.596559 1,-1.325686 0,-0.729127 1.150367,-2.4064 2.556372,-3.727273 6.02762,-5.662655 15.898173,-1.283749 15.898173,7.052959 0,8.336708 -9.870553,12.715614 -15.898173,7.052959 C 44.150367,34.732086 43,33.054813 43,32.325686 43,31.596559 42.55,31 42,31 c -0.55,0 -1,0.596559 -1,1.325686 0,0.729127 -1.150367,2.4064 -2.556372,3.727273 -4.71867,4.43296 -13.156903,2.525352 -15.39973,-3.481373 -0.650209,-1.741388 -0.897252,-1.628422 -2.547241,1.164787 -2.952285,4.997819 -8.471167,6.592528 -13.3865857,3.86812 z"
       id="path951"
       inkscape:connector-curvature="0" />
    <path
       style="fill:#5c63a9"
       d="M 7.1100713,37.604493 C -2.1614911,32.46566 2.2819373,19 13.249223,19 16.197441,19 22,25.296516 22,28.495708 22,36.277351 13.783871,41.303497 7.1100713,37.604493 Z M 49.374274,38.284992 C 42.909706,37.094327 40.369191,27.176263 45.272727,22.272727 47.188406,20.357049 48.852814,19.727273 52,19.727273 c 5.792121,0 9.272727,3.480606 9.272727,9.272727 0,6.357929 -5.306756,10.499072 -11.898453,9.284992 z"
       id="path949"
       inkscape:connector-curvature="0" />
    <path
       style="fill:#6a983c"
       d="M 8.2125672,37.46914 C 6.0575727,36.548737 4.4166937,34.848199 3.4491472,32.532535 1.41085,27.654203 3.4811881,22.532547 8.3064448,20.516426 13.859414,18.196247 18.295943,20.074513 20.668324,25.75 c 1.144688,2.738456 1.144688,3.761544 0,6.5 -2.371208,5.672678 -6.92566,7.581059 -12.4557568,5.21914 z M 49.374274,38.284992 C 42.909706,37.094327 40.369191,27.176263 45.272727,22.272727 47.188406,20.357049 48.852814,19.727273 52,19.727273 c 5.792121,0 9.272727,3.480606 9.272727,9.272727 0,6.357929 -5.306756,10.499072 -11.898453,9.284992 z"
       id="path947"
       inkscape:connector-curvature="0" />
    <path
       style="fill:#3c4598"
       d="M 8.2125672,37.46914 C 6.0575727,36.548737 4.4166937,34.848199 3.4491472,32.532535 1.41085,27.654203 3.4811881,22.532547 8.3064448,20.516426 13.859414,18.196247 18.295943,20.074513 20.668324,25.75 c 1.144688,2.738456 1.144688,3.761544 0,6.5 -2.371208,5.672678 -6.92566,7.581059 -12.4557568,5.21914 z"
       id="path945"
       inkscape:connector-curvature="0" />
  </g>
</svg>
